<svg xmlns="http://www.w3.org/2000/svg" width="1100" height="410" viewBox="0 0 1100 410" role="img" aria-labelledby="title desc"><title id="title">Writing for your readers</title><desc id="desc">Diagram labels: Motivation. Why it matters. Main idea. Before the details. Evidence. Clear labels and units. Reader. Different backgrounds.</desc><defs><marker id="a" markerWidth="12" markerHeight="12" refX="9" refY="5" orient="auto" markerUnits="userSpaceOnUse"><path d="M0 0 L9 5 L0 10" fill="none" stroke="#77756d" stroke-width="2" /></marker></defs><g font-family="Aptos, Segoe UI, Arial, sans-serif"><g transform="translate(140.0 137) scale(1)" fill="none" stroke="#b37218" stroke-width="3.5" stroke-linecap="round" stroke-linejoin="round"><circle cx="0" cy="0" r="34" /><path d="M-11-13 C-11-28 14-27 14-11 C14-1 0-3 0 10 M0 22 V23" /></g><text x="140.0" y="223" fill="#30302b" font-size="27" text-anchor="middle" font-weight="700">Motivation</text><text x="140.0" y="264" fill="#30302b" font-size="23" text-anchor="middle">Why it matters</text><path d="M195.0 137 H358.3333333333333" fill="none" stroke="#77756d" stroke-width="3" stroke-linecap="round" stroke-linejoin="round" marker-end="url(#a)" /><g transform="translate(413.3333333333333 137) scale(1)" fill="none" stroke="#466e7b" stroke-width="3.5" stroke-linecap="round" stroke-linejoin="round"><path d="M-12 20 C-12 9-27 1-27-15 C-27-49 27-49 27-15 C27 1 12 9 12 20 Z M-11 29 H11 M-6 37 H6" /></g><text x="413.3333333333333" y="223" fill="#30302b" font-size="27" text-anchor="middle" font-weight="700">Main idea</text><text x="413.3333333333333" y="264" fill="#30302b" font-size="23" text-anchor="middle">Before the details</text><path d="M468.3333333333333 137 H631.6666666666666" fill="none" stroke="#77756d" stroke-width="3" stroke-linecap="round" stroke-linejoin="round" marker-end="url(#a)" /><g transform="translate(686.6666666666666 137) scale(1)" fill="none" stroke="#b37218" stroke-width="3.5" stroke-linecap="round" stroke-linejoin="round"><path d="M-35-35 V35 H37 M-20 20 V0 M0 20 V-15 M20 20 V-29" /></g><text x="686.6666666666666" y="223" fill="#30302b" font-size="27" text-anchor="middle" font-weight="700">Evidence</text><text x="686.6666666666666" y="264" fill="#30302b" font-size="23" text-anchor="middle">Clear labels and units</text><path d="M741.6666666666666 137 H905.0" fill="none" stroke="#77756d" stroke-width="3" stroke-linecap="round" stroke-linejoin="round" marker-end="url(#a)" /><g transform="translate(960.0 137) scale(1)" fill="none" stroke="#466e7b" stroke-width="3.5" stroke-linecap="round" stroke-linejoin="round"><circle cx="0" cy="-22" r="16" /><path d="M-32 29 C-32-12 32-12 32 29" /></g><text x="960.0" y="223" fill="#30302b" font-size="27" text-anchor="middle" font-weight="700">Reader</text><text x="960.0" y="264" fill="#30302b" font-size="23" text-anchor="middle">Different backgrounds</text></g></svg>